<?xml version="1.0" standalone="no"?>
<!DOCTYPE svg PUBLIC "-//W3C//DTD SVG 20010904//EN"
 "http://www.w3.org/TR/2001/REC-SVG-20010904/DTD/svg10.dtd">
<svg version="1.0" xmlns="http://www.w3.org/2000/svg"
 width="552.000000pt" height="452.000000pt" viewBox="0 0 552.000000 452.000000"
 preserveAspectRatio="xMidYMid meet">

<g transform="translate(0.000000,452.000000) scale(0.100000,-0.100000)"
fill="#000000" stroke="none">
<path d="M2080 3954 c-99 -13 -258 -49 -361 -84 -112 -37 -313 -131 -354 -165
-11 -9 -14 -14 -7 -10 17 9 15 0 -5 -16 -11 -10 -14 -10 -9 -1 4 6 4 12 -1 12
-16 0 -181 -129 -253 -196 -88 -84 -242 -273 -236 -291 3 -7 0 -15 -6 -19 -7
-5 -8 -2 -4 7 4 8 -2 3 -13 -11 -35 -41 -157 -298 -190 -398 -61 -184 -76
-293 -75 -532 0 -230 11 -305 69 -497 131 -428 455 -812 857 -1014 285 -143
590 -204 900 -179 237 19 435 73 635 173 470 236 785 640 910 1167 22 92 25
131 28 325 1 121 1 196 -2 168 l-4 -53 -75 0 -74 0 0 -235 0 -235 -65 0 -65 0
0 235 0 235 -80 0 -80 0 0 60 0 60 220 0 c254 0 230 -14 204 121 -114 606
-579 1124 -1169 1304 -165 51 -268 66 -470 70 -104 2 -206 1 -225 -1z m-769
-307 c-6 -8 -9 -16 -6 -19 3 -3 -3 -11 -12 -19 -16 -12 -17 -12 -8 1 6 9 -3 1
-18 -17 -16 -18 -33 -31 -37 -28 -5 3 -14 -4 -20 -15 -6 -11 -15 -18 -19 -16
-5 3 -8 -4 -7 -17 0 -12 -4 -22 -10 -22 -6 0 -23 -13 -39 -30 -15 -16 -22 -21
-15 -10 7 11 0 7 -16 -10 -15 -16 -31 -29 -35 -28 -4 2 -6 -6 -4 -17 2 -11 -1
-23 -7 -26 -7 -5 -8 -2 -3 7 4 8 -7 -2 -25 -21 -18 -19 -27 -26 -20 -15 7 11
-4 2 -25 -20 -20 -22 -34 -34 -29 -26 5 10 3 12 -5 7 -9 -6 -9 -11 0 -22 6 -8
9 -15 5 -15 -3 -1 -10 -2 -14 -3 -5 0 -20 -14 -34 -30 -16 -19 -27 -25 -32
-18 -9 14 134 191 218 270 104 97 262 212 217 159z m1482 -1063 c177 -102 327
-191 332 -197 7 -8 8 -94 5 -244 l-5 -232 -294 170 c-162 93 -300 169 -307
169 -7 0 -14 -6 -17 -12 -3 -10 -14 -10 -53 0 -61 16 -79 32 -36 32 26 0 36 8
63 46 22 32 36 44 49 41 13 -3 20 5 29 33 6 20 11 51 11 67 0 17 9 38 20 48
19 18 26 58 14 89 -4 12 -16 14 -54 9 -27 -3 -60 -3 -74 1 -25 6 -26 9 -26 86
0 48 4 80 10 80 6 0 155 -84 333 -186z m-1964 -316 c25 -114 47 -205 50 -202
3 3 32 96 66 207 l60 202 62 3 62 3 25 -83 c14 -46 42 -140 62 -210 21 -71 40
-126 42 -123 3 3 26 96 51 208 l46 202 59 3 c32 2 64 1 71 -2 9 -3 -8 -83 -60
-288 -40 -155 -75 -293 -79 -306 -7 -22 -12 -23 -89 -20 l-81 3 -32 105 c-18
58 -42 139 -54 180 l-22 75 -30 -100 c-16 -55 -40 -137 -54 -182 l-25 -83 -83
0 -83 0 -77 303 c-42 166 -76 306 -76 310 0 4 32 7 72 5 l71 -3 46 -207z
m1131 147 l0 -65 -135 0 -135 0 0 -60 0 -60 115 0 115 0 0 -55 0 -55 -115 0
-115 0 0 -70 0 -70 135 0 135 0 0 -60 0 -60 -205 0 -204 0 -3 298 c-2 163 -1
303 1 310 2 9 52 12 207 12 l204 0 0 -65z m1480 -250 l0 -295 -65 0 -65 0 0
295 0 295 65 0 65 0 0 -295z m-1039 66 c24 -11 62 -23 84 -27 64 -11 149 -75
176 -131 21 -43 23 -63 24 -180 0 -130 0 -133 -27 -159 -70 -71 -284 -21 -412
97 -32 29 -60 65 -66 85 -14 42 -5 172 15 219 16 39 66 87 107 102 45 16 49
16 99 -6z m504 -221 c3 -5 2 -10 -4 -10 -5 0 -13 5 -16 10 -3 6 -2 10 4 10 5
0 13 -4 16 -10z m50 -30 c3 -5 2 -10 -4 -10 -5 0 -13 5 -16 10 -3 6 -2 10 4
10 5 0 13 -4 16 -10z m50 -30 c3 -6 -1 -7 -9 -4 -18 7 -21 14 -7 14 6 0 13 -4
16 -10z m50 -30 c3 -6 -1 -7 -9 -4 -18 7 -21 14 -7 14 6 0 13 -4 16 -10z m45
-25 c11 -13 10 -14 -4 -9 -9 3 -16 10 -16 15 0 13 6 11 20 -6z"/>
<path d="M2845 2466 c4 -11 9 -30 12 -41 4 -18 85 -65 112 -65 5 0 12 -6 14
-12 3 -7 6 1 6 17 1 45 -37 86 -98 106 l-53 17 7 -22z"/>
<path d="M2551 2324 c0 -11 3 -14 6 -6 3 7 2 16 -1 19 -3 4 -6 -2 -5 -13z"/>
<path d="M2921 2178 c-1 -26 4 -50 9 -53 12 -7 12 38 0 75 -7 20 -8 16 -9 -22z"/>
</g>
</svg>
